  <svg width="165" height="36" viewBox="0 0 165 36" fill="none" xmlns="http://www.w3.org/2000/svg">
                <path d="M21.7475 10.9945V7.4667C21.6926 3.29018 18.1798 -0.0517859 13.9016 0.000607723C9.70007 0.0530013 6.30869 3.36503 6.25374 7.4667V10.9945C2.33717 13.5419 0 17.7309 0 22.3328C0 29.8812 6.2678 36 14 36C21.7322 36 28 29.8812 28 22.3328C28 17.7246 25.6628 13.5419 21.7475 10.9945ZM11.1338 33.5849L12.6851 26.8311L11.9516 26.4781C9.63235 25.3741 8.66758 22.6434 9.79847 20.378C10.9294 18.1138 13.7265 17.172 16.0471 18.276C18.3664 19.38 19.3311 22.1107 18.2003 24.3761C17.7428 25.2917 16.985 26.0315 16.0471 26.4781L15.3123 26.8311L16.8649 33.5849C14.9839 34.0452 13.0148 34.0452 11.1338 33.5849ZM18.8405 32.9238L18.4954 31.4193L18.5108 31.4118L18.0367 29.3947L17.6917 27.8977C19.6072 26.6951 20.7623 24.6231 20.7585 22.4001C20.7585 18.7613 17.7377 15.811 14.0089 15.811C10.2815 15.811 7.2594 18.76 7.2594 22.4001C7.25685 24.6244 8.41201 26.6951 10.3262 27.899L9.92114 29.6616L9.5084 31.4193H9.51734L9.17233 32.9238C3.18054 30.3577 0.452355 23.5366 3.08087 17.6859C3.80157 16.0805 4.88645 14.6571 6.25374 13.5219V15.6164C2.45601 19.7517 2.81124 26.1088 7.04728 29.8163C7.32074 30.0546 7.6057 30.2791 7.90343 30.4887L8.42223 28.2832C5.04235 25.278 4.79828 20.1684 7.8766 16.8689C10.4284 14.1332 14.5571 13.4396 17.8987 15.1848V12.9518C14.7514 11.6944 11.1721 12.0337 8.33151 13.8587V7.4667C8.33151 4.4104 10.8693 1.93293 14 1.93293C17.1307 1.93293 19.6685 4.4104 19.6685 7.4667V9.86682C16.6477 8.58443 13.2652 8.36362 10.0975 9.24309V11.3837C13.2563 10.3259 16.7231 10.5978 19.6685 12.1322V13.86H19.6621V16.4322C22.9947 19.4449 23.1941 24.5258 20.1068 27.7779C19.9394 27.9538 19.7656 28.1222 19.5829 28.2832L20.1017 30.4899C24.7134 27.2453 25.7574 20.9643 22.4325 16.4634C22.2191 16.174 21.9903 15.8971 21.7475 15.6314V13.5219C26.7337 17.6597 27.3394 24.9587 23.1008 29.8263C21.9392 31.1598 20.4825 32.2202 18.8405 32.9238Z" fill="#FF8800"/>
                <path d="M44.8074 33.0002L38.5645 11.182H43.6035L47.215 26.3418H47.3961L51.3805 11.182H55.6951L59.6689 26.3738H59.8606L63.4721 11.182H68.5112L62.2683 33.0002H57.7726L53.6177 18.7353H53.4473L49.3031 33.0002H44.8074Z" fill="#190B44"/>
                <path d="M70.8949 33.0002V16.6365H75.4332V33.0002H70.8949ZM73.1747 14.5272C72.5 14.5272 71.9212 14.3034 71.4382 13.856C70.9624 13.4015 70.7244 12.8581 70.7244 12.226C70.7244 11.601 70.9624 11.0648 71.4382 10.6174C71.9212 10.1628 72.5 9.93555 73.1747 9.93555C73.8494 9.93555 74.4247 10.1628 74.9006 10.6174C75.3835 11.0648 75.625 11.601 75.625 12.226C75.625 12.8581 75.3835 13.4015 74.9006 13.856C74.4247 14.3034 73.8494 14.5272 73.1747 14.5272Z" fill="#190B44"/>
                <path d="M78.9835 33.0002V30.2942L86.9949 20.3759V20.2587H79.2605V16.6365H92.4601V19.5875L84.9387 29.2608V29.378H92.737V33.0002H78.9835Z" fill="#190B44"/>
                <path d="M96.2926 33.0002V11.182H100.906V29.1969H110.259V33.0002H96.2926Z" fill="#190B44"/>
                <path d="M120.622 33.3198C118.968 33.3198 117.536 32.9682 116.329 32.2651C115.129 31.5549 114.202 30.5677 113.548 29.3034C112.895 28.0321 112.568 26.5584 112.568 24.8823C112.568 23.1919 112.895 21.7147 113.548 20.4505C114.202 19.1792 115.129 18.1919 116.329 17.4888C117.536 16.7786 118.968 16.4235 120.622 16.4235C122.277 16.4235 123.705 16.7786 124.905 17.4888C126.112 18.1919 127.043 19.1792 127.696 20.4505C128.35 21.7147 128.676 23.1919 128.676 24.8823C128.676 26.5584 128.35 28.0321 127.696 29.3034C127.043 30.5677 126.112 31.5549 124.905 32.2651C123.705 32.9682 122.277 33.3198 120.622 33.3198ZM120.644 29.8042C121.396 29.8042 122.025 29.5911 122.529 29.165C123.034 28.7317 123.414 28.1422 123.669 27.3965C123.932 26.6507 124.063 25.802 124.063 24.8503C124.063 23.8986 123.932 23.0499 123.669 22.3042C123.414 21.5584 123.034 20.9689 122.529 20.5357C122.025 20.1025 121.396 19.8858 120.644 19.8858C119.884 19.8858 119.244 20.1025 118.726 20.5357C118.215 20.9689 117.828 21.5584 117.565 22.3042C117.309 23.0499 117.181 23.8986 117.181 24.8503C117.181 25.802 117.309 26.6507 117.565 27.3965C117.828 28.1422 118.215 28.7317 118.726 29.165C119.244 29.5911 119.884 29.8042 120.644 29.8042Z" fill="#190B44"/>
                <path d="M139.021 33.3198C137.345 33.3198 135.903 32.9647 134.695 32.2544C133.495 31.5371 132.572 30.5428 131.926 29.2715C131.286 28.0002 130.967 26.5371 130.967 24.8823C130.967 23.2061 131.29 21.736 131.936 20.4718C132.59 19.2005 133.517 18.2097 134.717 17.4995C135.917 16.7821 137.345 16.4235 138.999 16.4235C140.427 16.4235 141.677 16.6827 142.749 17.2012C143.822 17.7196 144.671 18.4476 145.296 19.3851C145.921 20.3226 146.265 21.4235 146.329 22.6877H142.046C141.926 21.8709 141.606 21.214 141.088 20.7168C140.576 20.2125 139.905 19.9604 139.074 19.9604C138.371 19.9604 137.757 20.1522 137.231 20.5357C136.713 20.9121 136.308 21.4625 136.017 22.187C135.725 22.9114 135.58 23.7885 135.58 24.8184C135.58 25.8624 135.722 26.7502 136.006 27.4817C136.297 28.2132 136.705 28.7708 137.231 29.1543C137.757 29.5378 138.371 29.7296 139.074 29.7296C139.593 29.7296 140.058 29.623 140.47 29.41C140.889 29.1969 141.233 28.888 141.503 28.4831C141.78 28.0712 141.961 27.5776 142.046 27.0023H146.329C146.258 28.2523 145.917 29.3532 145.306 30.3049C144.703 31.2495 143.868 31.9881 142.803 32.5208C141.737 33.0534 140.477 33.3198 139.021 33.3198Z" fill="#190B44"/>
                <path d="M153.347 28.2914L153.358 22.8475H154.018L159.26 16.6365H164.469L157.427 24.861H156.351L153.347 28.2914ZM149.235 33.0002V11.182H153.773V33.0002H149.235ZM159.462 33.0002L154.647 25.873L157.672 22.6664L164.778 33.0002H159.462Z" fill="#190B44"/>
                </svg>