    <svg width="134" height="21" viewBox="0 0 134 21" fill="none" xmlns="http://www.w3.org/2000/svg">
            <path d="M6 15.5838V6.12926H9.73011C10.4472 6.12926 11.0581 6.26622 11.5629 6.54013C12.0676 6.81096 12.4523 7.18797 12.717 7.67116C12.9847 8.15128 13.1186 8.70526 13.1186 9.3331C13.1186 9.96094 12.9832 10.5149 12.7124 10.995C12.4415 11.4751 12.0491 11.8491 11.5352 12.1168C11.0243 12.3846 10.4057 12.5185 9.67933 12.5185H7.30185V10.9165H9.35618C9.74089 10.9165 10.0579 10.8504 10.3072 10.718C10.5595 10.5826 10.7473 10.3964 10.8704 10.1594C10.9966 9.91939 11.0597 9.64394 11.0597 9.3331C11.0597 9.01918 10.9966 8.74527 10.8704 8.51136C10.7473 8.27438 10.5595 8.09126 10.3072 7.962C10.0548 7.82966 9.73473 7.76349 9.34695 7.76349H7.99893V15.5838H6Z" fill="black"/>
            <path d="M14.9548 15.5838H12.8128L16.0766 6.12926H18.6526L21.9118 15.5838H19.7698L17.4015 8.28977H17.3277L14.9548 15.5838ZM14.8209 11.8675H19.8806V13.4279H14.8209V11.8675Z" fill="black"/>
            <path d="M21.531 6.12926H23.77L25.9259 10.201H26.0182L28.1741 6.12926H30.4131L26.9646 12.2415V15.5838H24.9795V12.2415L21.531 6.12926Z" fill="black"/>
            <path d="M36.1433 15.5838H34.0012L37.2651 6.12926H39.8411L43.1003 15.5838H40.9583L38.59 8.28977H38.5162L36.1433 15.5838ZM36.0094 11.8675H41.0691V13.4279H36.0094V11.8675Z" fill="black"/>
            <path d="M49.1514 8.84837C49.1144 8.47597 48.9559 8.18667 48.6759 7.98047C48.3958 7.77427 48.0157 7.67116 47.5356 7.67116C47.2094 7.67116 46.9339 7.71733 46.7093 7.80966C46.4846 7.89891 46.3122 8.02356 46.1922 8.18359C46.0753 8.34363 46.0168 8.52521 46.0168 8.72834C46.0106 8.89761 46.046 9.04534 46.123 9.17152C46.203 9.2977 46.3122 9.40696 46.4507 9.49929C46.5892 9.58854 46.7493 9.66702 46.9308 9.73473C47.1124 9.79936 47.3063 9.85476 47.5125 9.90092L48.3619 10.104C48.7744 10.1964 49.1529 10.3195 49.4976 10.4734C49.8423 10.6272 50.1408 10.8165 50.3932 11.0412C50.6456 11.2659 50.841 11.5305 50.9795 11.8352C51.1211 12.1399 51.1934 12.4892 51.1965 12.8832C51.1934 13.4618 51.0457 13.9634 50.7533 14.3881C50.464 14.8098 50.0454 15.1375 49.4976 15.3714C48.9529 15.6023 48.2958 15.7177 47.5264 15.7177C46.7631 15.7177 46.0983 15.6007 45.532 15.3668C44.9688 15.1329 44.5287 14.7867 44.2117 14.3281C43.8978 13.8665 43.7332 13.2956 43.7178 12.6154H45.6521C45.6736 12.9324 45.7644 13.1971 45.9244 13.4094C46.0876 13.6187 46.3045 13.7772 46.5754 13.8849C46.8493 13.9896 47.1586 14.0419 47.5033 14.0419C47.8418 14.0419 48.1357 13.9927 48.385 13.8942C48.6374 13.7957 48.8328 13.6587 48.9713 13.4833C49.1098 13.3079 49.1791 13.1063 49.1791 12.8786C49.1791 12.6662 49.116 12.4877 48.9898 12.343C48.8667 12.1984 48.6851 12.0753 48.445 11.9737C48.2081 11.8722 47.9172 11.7798 47.5725 11.6967L46.5431 11.4382C45.7459 11.2443 45.1166 10.9412 44.6549 10.5288C44.1933 10.1164 43.964 9.56084 43.9671 8.86222C43.964 8.28977 44.1163 7.78965 44.4241 7.36186C44.7349 6.93407 45.1612 6.60014 45.7029 6.36009C46.2445 6.12003 46.8601 6 47.5494 6C48.2512 6 48.8636 6.12003 49.3868 6.36009C49.9131 6.60014 50.3224 6.93407 50.6148 7.36186C50.9072 7.78965 51.058 8.28516 51.0672 8.84837H49.1514Z" fill="black"/>
            <path d="M54.9958 6.12926H57.2348L59.3907 10.201H59.483L61.6389 6.12926H63.8779L60.4294 12.2415V15.5838H58.4443V12.2415L54.9958 6.12926Z" fill="black"/>
            <path d="M73.0866 10.8565C73.0866 11.8875 72.8912 12.7647 72.5004 13.4879C72.1126 14.2112 71.5832 14.7636 70.9123 15.1452C70.2444 15.5238 69.4935 15.7131 68.6594 15.7131C67.8192 15.7131 67.0652 15.5223 66.3974 15.1406C65.7295 14.759 65.2017 14.2066 64.8139 13.4833C64.4261 12.7601 64.2322 11.8845 64.2322 10.8565C64.2322 9.82552 64.4261 8.94839 64.8139 8.22514C65.2017 7.50189 65.7295 6.95099 66.3974 6.57244C67.0652 6.19081 67.8192 6 68.6594 6C69.4935 6 70.2444 6.19081 70.9123 6.57244C71.5832 6.95099 72.1126 7.50189 72.5004 8.22514C72.8912 8.94839 73.0866 9.82552 73.0866 10.8565ZM71.06 10.8565C71.06 10.1887 70.96 9.62547 70.7599 9.1669C70.563 8.70833 70.2844 8.36056 69.9244 8.12358C69.5643 7.8866 69.1426 7.76811 68.6594 7.76811C68.1763 7.76811 67.7546 7.8866 67.3945 8.12358C67.0344 8.36056 66.7544 8.70833 66.5543 9.1669C66.3574 9.62547 66.2589 10.1887 66.2589 10.8565C66.2589 11.5244 66.3574 12.0876 66.5543 12.5462C66.7544 13.0047 67.0344 13.3525 67.3945 13.5895C67.7546 13.8265 68.1763 13.945 68.6594 13.945C69.1426 13.945 69.5643 13.8265 69.9244 13.5895C70.2844 13.3525 70.563 13.0047 70.7599 12.5462C70.96 12.0876 71.06 11.5244 71.06 10.8565Z" fill="black"/>
            <path d="M80.4072 6.12926H82.4062V12.2692C82.4062 12.9586 82.2415 13.5618 81.9122 14.0788C81.586 14.5959 81.1289 14.9991 80.5411 15.2884C79.9533 15.5746 79.2685 15.7177 78.4868 15.7177C77.702 15.7177 77.0157 15.5746 76.4278 15.2884C75.84 14.9991 75.383 14.5959 75.0567 14.0788C74.7305 13.5618 74.5674 12.9586 74.5674 12.2692V6.12926H76.5663V12.0984C76.5663 12.4585 76.6448 12.7785 76.8018 13.0586C76.9618 13.3387 77.1865 13.5587 77.4758 13.7188C77.7651 13.8788 78.1021 13.9588 78.4868 13.9588C78.8746 13.9588 79.2116 13.8788 79.4978 13.7188C79.7871 13.5587 80.0102 13.3387 80.1672 13.0586C80.3272 12.7785 80.4072 12.4585 80.4072 12.0984V6.12926Z" fill="black"/>
            <path d="M92.1885 8.84837C92.1515 8.47597 91.993 8.18667 91.713 7.98047C91.4329 7.77427 91.0528 7.67116 90.5727 7.67116C90.2465 7.67116 89.971 7.71733 89.7464 7.80966C89.5217 7.89891 89.3493 8.02356 89.2293 8.18359C89.1124 8.34363 89.0539 8.52521 89.0539 8.72834C89.0477 8.89761 89.0831 9.04534 89.1601 9.17152C89.2401 9.2977 89.3493 9.40696 89.4878 9.49929C89.6263 9.58854 89.7864 9.66702 89.9679 9.73473C90.1495 9.79936 90.3434 9.85476 90.5496 9.90092L91.3991 10.104C91.8115 10.1964 92.19 10.3195 92.5347 10.4734C92.8794 10.6272 93.1779 10.8165 93.4303 11.0412C93.6827 11.2659 93.8781 11.5305 94.0166 11.8352C94.1582 12.1399 94.2305 12.4892 94.2336 12.8832C94.2305 13.4618 94.0828 13.9634 93.7904 14.3881C93.5011 14.8098 93.0825 15.1375 92.5347 15.3714C91.99 15.6023 91.3329 15.7177 90.5635 15.7177C89.8002 15.7177 89.1354 15.6007 88.5692 15.3668C88.006 15.1329 87.5658 14.7867 87.2488 14.3281C86.9349 13.8665 86.7703 13.2956 86.7549 12.6154H88.6892C88.7107 12.9324 88.8015 13.1971 88.9616 13.4094C89.1247 13.6187 89.3416 13.7772 89.6125 13.8849C89.8864 13.9896 90.1957 14.0419 90.5404 14.0419C90.8789 14.0419 91.1729 13.9927 91.4221 13.8942C91.6745 13.7957 91.8699 13.6587 92.0084 13.4833C92.1469 13.3079 92.2162 13.1063 92.2162 12.8786C92.2162 12.6662 92.1531 12.4877 92.0269 12.343C91.9038 12.1984 91.7222 12.0753 91.4822 11.9737C91.2452 11.8722 90.9543 11.7798 90.6096 11.6967L89.5802 11.4382C88.7831 11.2443 88.1537 10.9412 87.692 10.5288C87.2304 10.1164 87.0011 9.56084 87.0042 8.86222C87.0011 8.28977 87.1534 7.78965 87.4612 7.36186C87.772 6.93407 88.1983 6.60014 88.74 6.36009C89.2816 6.12003 89.8972 6 90.5866 6C91.2883 6 91.9007 6.12003 92.4239 6.36009C92.9502 6.60014 93.3595 6.93407 93.6519 7.36186C93.9443 7.78965 94.0951 8.28516 94.1043 8.84837H92.1885Z" fill="black"/>
            <path d="M95.218 7.77734V6.12926H102.983V7.77734H100.088V15.5838H98.1126V7.77734H95.218Z" fill="black"/>
            <path d="M104.736 15.5838H102.594L105.858 6.12926H108.434L111.693 15.5838H109.551L107.183 8.28977H107.109L104.736 15.5838ZM104.602 11.8675H109.662V13.4279H104.602V11.8675Z" fill="black"/>
            <path d="M111.312 6.12926H113.551L115.707 10.201H115.799L117.955 6.12926H120.194L116.746 12.2415V15.5838H114.761V12.2415L111.312 6.12926Z" fill="black"/>
            <path d="M123.328 11.3551V7.94815H124.994C125.21 7.94815 125.407 7.99278 125.585 8.08203C125.767 8.17128 125.91 8.30054 126.015 8.46982C126.122 8.63601 126.176 8.83913 126.176 9.07919C126.176 9.31925 126.121 9.52391 126.01 9.69318C125.899 9.86245 125.751 9.99171 125.567 10.081C125.382 10.1671 125.177 10.2102 124.953 10.2102H123.812V9.56854H124.768C124.897 9.56854 125.008 9.52699 125.1 9.44389C125.196 9.3608 125.244 9.23769 125.244 9.07457C125.244 8.9053 125.196 8.78528 125.1 8.71449C125.008 8.64063 124.899 8.60369 124.773 8.60369H124.214V11.3551H123.328ZM125.502 9.7809L126.278 11.3551H125.308L124.583 9.7809H125.502ZM124.662 13.3864C124.151 13.3864 123.672 13.291 123.226 13.1001C122.78 12.9093 122.388 12.6447 122.049 12.3061C121.71 11.9676 121.446 11.5752 121.255 11.1289C121.064 10.6826 120.969 10.2041 120.969 9.69318C120.969 9.18229 121.064 8.70372 121.255 8.25746C121.446 7.8112 121.71 7.4188 122.049 7.08026C122.388 6.74171 122.78 6.47704 123.226 6.28622C123.672 6.09541 124.151 6 124.662 6C125.173 6 125.651 6.09541 126.098 6.28622C126.544 6.47704 126.936 6.74171 127.275 7.08026C127.613 7.4188 127.878 7.8112 128.069 8.25746C128.26 8.70372 128.355 9.18229 128.355 9.69318C128.355 10.2041 128.26 10.6826 128.069 11.1289C127.878 11.5752 127.613 11.9676 127.275 12.3061C126.936 12.6447 126.544 12.9093 126.098 13.1001C125.651 13.291 125.173 13.3864 124.662 13.3864ZM124.662 12.4123C125.167 12.4123 125.624 12.2907 126.033 12.0476C126.445 11.8014 126.773 11.4736 127.016 11.0643C127.259 10.6519 127.381 10.1948 127.381 9.69318C127.381 9.19152 127.258 8.73603 127.012 8.3267C126.769 7.9143 126.441 7.58653 126.028 7.34339C125.619 7.09718 125.164 6.97408 124.662 6.97408C124.163 6.97408 123.708 7.09718 123.295 7.34339C122.883 7.58653 122.555 7.9143 122.312 8.3267C122.069 8.73603 121.947 9.19152 121.947 9.69318C121.947 10.1948 122.069 10.6519 122.312 11.0643C122.555 11.4736 122.883 11.8014 123.295 12.0476C123.708 12.2907 124.163 12.4123 124.662 12.4123Z" fill="black"/>
            <path fill-rule="evenodd" clip-rule="evenodd" d="M132.5 1.5H1.5V19.5H132.5V1.5ZM0 0V21H134V0H0Z" fill="black"/>
            </svg>