<svg width="44" height="57" viewBox="0 0 44 57" fill="none" xmlns="http://www.w3.org/2000/svg">
<path d="M34.1747 17.408V11.8223C34.0884 5.20945 28.5683 -0.0819943 21.8454 0.000962228C15.243 0.0839188 9.91365 5.32796 9.82731 11.8223V17.408C3.67269 21.4413 0 28.0738 0 35.3602C0 47.3119 9.8494 57 22 57C34.1506 57 44 47.3119 44 35.3602C44 28.064 40.3273 21.4413 34.1747 17.408ZM17.496 53.1761L18.4016 49.1981L19.9337 42.4826L18.7811 41.9236C15.1365 40.1756 13.6205 35.852 15.3976 32.2651C17.1747 28.6802 21.5703 27.189 25.2169 28.937C28.8614 30.685 30.3775 35.0086 28.6004 38.5955C27.8815 40.0453 26.6908 41.2165 25.2169 41.9236L24.0623 42.4826L25.5964 49.1981L26.502 53.1761C23.5462 53.9049 20.4518 53.9049 17.496 53.1761ZM29.6064 52.1293L29.0643 49.7472L29.0884 49.7354L28.3434 46.5416L27.8012 44.1714C30.8112 42.2673 32.6265 38.9866 32.6205 35.4669C32.6205 29.7053 27.8735 25.0341 22.0141 25.0341C16.1566 25.0341 11.4076 29.7033 11.4076 35.4669C11.4036 38.9886 13.2189 42.2673 16.2269 44.1733L15.5904 46.9642L14.9418 49.7472H14.9558L14.4137 52.1293C4.99799 48.0664 0.710844 37.2662 4.84137 28.0027C5.9739 25.4607 7.67871 23.2071 9.82731 21.4097V24.726C3.85944 31.2736 4.41767 41.339 11.0743 47.2092C11.504 47.5864 11.9518 47.9419 12.4197 48.2738L13.2349 44.7817C7.9237 40.0235 7.54016 31.9333 12.3775 26.709C16.3876 22.3775 22.8755 21.2793 28.1265 24.0426V20.507C23.1807 18.5161 17.5562 19.0533 13.0924 21.943V19.2173V15.6047V11.8223C13.0924 6.98314 17.0803 3.06048 22 3.06048C26.9197 3.06048 30.9076 6.98314 30.9076 11.8223V15.6225C26.1606 13.592 20.8454 13.2424 15.8675 14.6349V18.0243C20.8313 16.3493 26.2791 16.7799 30.9076 19.2093V21.9449H30.8976V26.0177C36.1345 30.7877 36.4478 38.8325 31.5964 43.9817C31.3333 44.2602 31.0602 44.5269 30.7731 44.7817L31.5884 48.2757C38.8353 43.1384 40.4759 33.1934 35.251 26.0671C34.9157 25.6089 34.5562 25.1704 34.1747 24.7497V21.4097C42.01 27.9613 42.9618 39.5179 36.3012 47.225C34.4759 49.3364 32.1867 51.0153 29.6064 52.1293Z" fill="#FF8800"/>
</svg>