<svg width="142" height="22" viewBox="0 0 142 22" fill="none" xmlns="http://www.w3.org/2000/svg">
<rect width="142" height="22" fill="white"/>
<path d="M9.95064 9.26456C9.91371 8.89216 9.75521 8.60286 9.47514 8.39666C9.19508 8.19046 8.81499 8.08736 8.33487 8.08736C8.00864 8.08736 7.73319 8.13352 7.50852 8.22585C7.28385 8.3151 7.11151 8.43975 6.99148 8.59979C6.87453 8.75982 6.81605 8.94141 6.81605 9.14453C6.8099 9.3138 6.84529 9.46153 6.92223 9.58771C7.00225 9.7139 7.11151 9.82315 7.25 9.91548C7.38849 10.0047 7.54853 10.0832 7.73011 10.1509C7.9117 10.2156 8.10559 10.271 8.31179 10.3171L9.16122 10.5202C9.57363 10.6126 9.95218 10.7357 10.2969 10.8896C10.6416 11.0434 10.9401 11.2327 11.1925 11.4574C11.4448 11.6821 11.6403 11.9467 11.7788 12.2514C11.9203 12.5561 11.9927 12.9054 11.9957 13.2994C11.9927 13.878 11.8449 14.3796 11.5526 14.8043C11.2633 15.226 10.8447 15.5537 10.2969 15.7876C9.75213 16.0185 9.09505 16.1339 8.32564 16.1339C7.56238 16.1339 6.89761 16.0169 6.33132 15.783C5.76811 15.5491 5.32801 15.2029 5.01101 14.7443C4.69709 14.2827 4.53243 13.7118 4.51705 13.0316H6.45135C6.47289 13.3486 6.56368 13.6133 6.72372 13.8256C6.88684 14.0349 7.10381 14.1934 7.37464 14.3011C7.64856 14.4058 7.95786 14.4581 8.30256 14.4581C8.6411 14.4581 8.93501 14.4089 9.1843 14.3104C9.43667 14.2119 9.6321 14.0749 9.7706 13.8995C9.90909 13.7241 9.97834 13.5225 9.97834 13.2947C9.97834 13.0824 9.91525 12.9039 9.78906 12.7592C9.66596 12.6146 9.48438 12.4915 9.24432 12.3899C9.00734 12.2884 8.7165 12.196 8.3718 12.1129L7.34233 11.8544C6.54522 11.6605 5.91584 11.3574 5.45419 10.945C4.99254 10.5326 4.76326 9.97704 4.76634 9.27841C4.76326 8.70597 4.9156 8.20585 5.22337 7.77805C5.53421 7.35026 5.96046 7.01634 6.50213 6.77628C7.0438 6.53622 7.65933 6.41619 8.34872 6.41619C9.05043 6.41619 9.66288 6.53622 10.1861 6.77628C10.7124 7.01634 11.1217 7.35026 11.4141 7.77805C11.7064 8.20585 11.8572 8.70135 11.8665 9.26456H9.95064ZM15.3254 16.1339C14.873 16.1339 14.4698 16.0554 14.1159 15.8984C13.7619 15.7384 13.4819 15.503 13.2757 15.1921C13.0725 14.8782 12.971 14.4873 12.971 14.0195C12.971 13.6256 13.0433 13.2947 13.1879 13.027C13.3326 12.7592 13.5296 12.5438 13.7789 12.3807C14.0281 12.2176 14.3113 12.0945 14.6283 12.0114C14.9484 11.9283 15.2838 11.8698 15.6347 11.8359C16.0471 11.7929 16.3795 11.7528 16.6318 11.7159C16.8842 11.6759 17.0673 11.6174 17.1812 11.5405C17.2951 11.4635 17.352 11.3497 17.352 11.1989V11.1712C17.352 10.8788 17.2597 10.6526 17.075 10.4925C16.8934 10.3325 16.6349 10.2525 16.2994 10.2525C15.9455 10.2525 15.6639 10.331 15.4546 10.4879C15.2454 10.6418 15.1069 10.8357 15.0392 11.0696L13.2203 10.9219C13.3126 10.491 13.4942 10.1186 13.765 9.80469C14.0358 9.48769 14.3852 9.24455 14.8129 9.07528C15.2438 8.90294 15.7424 8.81676 16.3087 8.81676C16.7026 8.81676 17.0796 8.86293 17.4397 8.95526C17.8029 9.04759 18.1245 9.1907 18.4046 9.38459C18.6877 9.57848 18.9108 9.82777 19.074 10.1325C19.2371 10.4341 19.3186 10.7957 19.3186 11.2173V16H17.4536V15.0167H17.3982C17.2843 15.2383 17.132 15.4337 16.9411 15.603C16.7503 15.7692 16.521 15.9 16.2533 15.9954C15.9855 16.0877 15.6762 16.1339 15.3254 16.1339ZM15.8886 14.7766C16.1779 14.7766 16.4333 14.7197 16.6549 14.6058C16.8765 14.4889 17.0504 14.3319 17.1766 14.1349C17.3028 13.938 17.3659 13.7148 17.3659 13.4656V12.7131C17.3043 12.7531 17.2197 12.79 17.1119 12.8239C17.0073 12.8546 16.8888 12.8839 16.7565 12.9116C16.6241 12.9362 16.4918 12.9593 16.3595 12.9808C16.2271 12.9993 16.1071 13.0162 15.9994 13.0316C15.7686 13.0655 15.567 13.1193 15.3946 13.1932C15.2223 13.267 15.0884 13.3671 14.993 13.4933C14.8976 13.6164 14.8499 13.7702 14.8499 13.9549C14.8499 14.2227 14.9468 14.4273 15.1407 14.5689C15.3377 14.7074 15.587 14.7766 15.8886 14.7766ZM22.811 6.54545V16H20.8444V6.54545H22.811ZM27.6179 16.1385C26.8885 16.1385 26.2607 15.9908 25.7344 15.6953C25.2112 15.3968 24.808 14.9751 24.5249 14.4304C24.2417 13.8826 24.1001 13.2347 24.1001 12.4869C24.1001 11.7575 24.2417 11.1173 24.5249 10.5664C24.808 10.0155 25.2066 9.58617 25.7205 9.27841C26.2376 8.97064 26.8439 8.81676 27.5394 8.81676C28.0072 8.81676 28.4427 8.89216 28.8459 9.04297C29.2521 9.1907 29.6061 9.41383 29.9077 9.71236C30.2124 10.0109 30.4493 10.3864 30.6186 10.8388C30.7879 11.2881 30.8725 11.8144 30.8725 12.4176V12.9577H24.8849V11.739H29.0213C29.0213 11.4558 28.9598 11.205 28.8366 10.9865C28.7135 10.768 28.5427 10.5972 28.3242 10.4741C28.1088 10.3479 27.858 10.2848 27.5717 10.2848C27.2732 10.2848 27.0085 10.354 26.7777 10.4925C26.55 10.628 26.3714 10.8111 26.2422 11.0419C26.1129 11.2696 26.0468 11.5236 26.0437 11.8036V12.9624C26.0437 13.3132 26.1083 13.6164 26.2376 13.8718C26.3699 14.1272 26.5561 14.3242 26.7962 14.4627C27.0362 14.6012 27.3209 14.6705 27.6502 14.6705C27.8687 14.6705 28.0688 14.6397 28.2504 14.5781C28.4319 14.5166 28.5874 14.4242 28.7166 14.3011C28.8459 14.178 28.9444 14.0272 29.0121 13.8487L30.831 13.9688C30.7386 14.4058 30.5494 14.7874 30.2631 15.1136C29.98 15.4368 29.6138 15.6892 29.1644 15.8707C28.7182 16.0492 28.2027 16.1385 27.6179 16.1385ZM38.0558 10.9311L36.2553 11.0419C36.2246 10.888 36.1584 10.7495 36.0568 10.6264C35.9553 10.5002 35.8214 10.4002 35.6552 10.3263C35.4921 10.2494 35.2966 10.2109 35.0689 10.2109C34.7642 10.2109 34.5072 10.2756 34.2979 10.4048C34.0887 10.531 33.984 10.7003 33.984 10.9126C33.984 11.0819 34.0517 11.225 34.1871 11.342C34.3226 11.4589 34.5549 11.5528 34.8842 11.6236L36.1676 11.8821C36.857 12.0237 37.371 12.2514 37.7095 12.5653C38.0481 12.8793 38.2173 13.2917 38.2173 13.8026C38.2173 14.2673 38.0804 14.6751 37.8065 15.0259C37.5356 15.3768 37.1632 15.6507 36.6893 15.8477C36.2184 16.0415 35.6752 16.1385 35.0597 16.1385C34.121 16.1385 33.3731 15.9431 32.8161 15.5522C32.2621 15.1583 31.9374 14.6228 31.842 13.9457L33.7763 13.8441C33.8348 14.1303 33.9763 14.3488 34.201 14.4996C34.4257 14.6474 34.7134 14.7212 35.0643 14.7212C35.409 14.7212 35.686 14.6551 35.8952 14.5227C36.1076 14.3873 36.2153 14.2134 36.2184 14.0011C36.2153 13.8226 36.1399 13.6764 35.9922 13.5625C35.8445 13.4455 35.6167 13.3563 35.3089 13.2947L34.081 13.0501C33.3885 12.9116 32.873 12.6715 32.5344 12.3299C32.199 11.9883 32.0312 11.5528 32.0312 11.0234C32.0312 10.5679 32.1544 10.1755 32.4006 9.84624C32.6499 9.51693 32.9992 9.26302 33.4485 9.08452C33.9009 8.90601 34.4303 8.81676 35.0366 8.81676C35.9322 8.81676 36.637 9.00604 37.1509 9.38459C37.668 9.76314 37.9696 10.2786 38.0558 10.9311ZM45.6464 18.7237C44.6646 18.7237 43.7906 18.5898 43.0242 18.3221C42.2579 18.0574 41.6101 17.6681 41.0807 17.1541C40.5513 16.6432 40.1482 16.0185 39.8712 15.2798C39.5942 14.5412 39.4557 13.701 39.4557 12.7592C39.4557 11.8298 39.5942 10.9865 39.8712 10.2294C40.1512 9.4723 40.559 8.82292 41.0945 8.28125C41.6301 7.73651 42.2841 7.31794 43.0566 7.02557C43.8321 6.73319 44.7154 6.587 45.7064 6.587C46.6236 6.587 47.4422 6.72088 48.1624 6.98864C48.8856 7.25639 49.4981 7.63802 49.9997 8.13352C50.5045 8.62595 50.8876 9.21224 51.1492 9.8924C51.4139 10.5695 51.5447 11.3189 51.5416 12.1406C51.5447 12.7069 51.4955 13.227 51.3939 13.701C51.2923 14.175 51.1323 14.5889 50.9138 14.9428C50.6984 15.2937 50.4152 15.5722 50.0644 15.7784C49.7135 15.9815 49.2888 16.0969 48.7902 16.1246C48.4332 16.1523 48.1439 16.1262 47.9223 16.0462C47.7007 15.9661 47.5315 15.8477 47.4145 15.6907C47.3006 15.5307 47.2268 15.3445 47.1929 15.1321H47.1375C47.0637 15.3168 46.919 15.4845 46.7036 15.6353C46.4881 15.783 46.225 15.8984 45.9142 15.9815C45.6064 16.0616 45.2786 16.0908 44.9308 16.0692C44.5677 16.0477 44.223 15.9631 43.8968 15.8153C43.5736 15.6676 43.2858 15.4537 43.0335 15.1737C42.7842 14.8936 42.5872 14.5473 42.4426 14.1349C42.301 13.7225 42.2287 13.2455 42.2256 12.7038C42.2287 12.1683 42.3041 11.7021 42.4518 11.305C42.6026 10.908 42.8011 10.5741 43.0473 10.3033C43.2966 10.0324 43.5736 9.82008 43.8783 9.66619C44.183 9.51231 44.4892 9.41383 44.797 9.37074C45.1447 9.31842 45.474 9.31842 45.7849 9.37074C46.0957 9.42306 46.3573 9.50769 46.5697 9.62464C46.7851 9.7416 46.919 9.86778 46.9713 10.0032H47.036V9.48615H48.4809V13.9918C48.484 14.2042 48.5317 14.3688 48.624 14.4858C48.7164 14.6027 48.841 14.6612 48.998 14.6612C49.2103 14.6612 49.3873 14.5674 49.5289 14.3796C49.6735 14.1919 49.7812 13.9041 49.852 13.5163C49.9259 13.1286 49.9628 12.6346 49.9628 12.0344C49.9628 11.4558 49.8859 10.948 49.732 10.511C49.5812 10.0709 49.3688 9.69697 49.0949 9.3892C48.8241 9.07836 48.5086 8.82599 48.1485 8.6321C47.7884 8.43821 47.3976 8.29664 46.9759 8.20739C46.5574 8.11813 46.1265 8.07351 45.6833 8.07351C44.917 8.07351 44.2476 8.19046 43.6752 8.42436C43.1027 8.65518 42.6257 8.97988 42.2441 9.39844C41.8624 9.817 41.5762 10.3079 41.3854 10.8711C41.1977 11.4312 41.1022 12.0421 41.0992 12.7038C41.1022 13.4332 41.2038 14.0795 41.4039 14.6428C41.607 15.2029 41.9055 15.6738 42.2994 16.0554C42.6934 16.437 43.1797 16.7263 43.7583 16.9233C44.3369 17.1203 45.0016 17.2188 45.7526 17.2188C46.1065 17.2188 46.4527 17.1926 46.7913 17.1403C47.1298 17.091 47.4361 17.0295 47.71 16.9556C47.9839 16.8848 48.2039 16.8156 48.3701 16.7479L48.8271 18.0866C48.6333 18.1974 48.3701 18.3005 48.0377 18.396C47.7084 18.4944 47.336 18.5729 46.9205 18.6314C46.5081 18.6929 46.0834 18.7237 45.6464 18.7237ZM45.434 14.5504C45.8095 14.5504 46.108 14.4781 46.3296 14.3335C46.5543 14.1888 46.7143 13.9749 46.8097 13.6918C46.9082 13.4055 46.9544 13.0531 46.9482 12.6346C46.9452 12.2653 46.8975 11.9529 46.8051 11.6974C46.7159 11.4389 46.5605 11.2435 46.3389 11.1112C46.1204 10.9757 45.8157 10.908 45.4248 10.908C45.0832 10.908 44.7923 10.9804 44.5523 11.125C44.3153 11.2696 44.1337 11.4728 44.0075 11.7344C43.8844 11.9929 43.8213 12.2976 43.8183 12.6484C43.8213 12.9747 43.8737 13.284 43.9752 13.5763C44.0768 13.8656 44.2445 14.1011 44.4784 14.2827C44.7123 14.4612 45.0309 14.5504 45.434 14.5504ZM55.0144 16L52.3091 6.54545H54.4927L56.0577 13.1147H56.1362L57.8627 6.54545H59.7324L61.4544 13.1286H61.5375L63.1025 6.54545H65.286L62.5808 16H60.6326L58.8322 9.81854H58.7583L56.9625 16H55.0144ZM66.319 16V8.90909H68.2856V16H66.319ZM67.3069 7.99503C67.0145 7.99503 66.7637 7.89808 66.5544 7.70419C66.3482 7.50722 66.2451 7.27178 66.2451 6.99787C66.2451 6.72704 66.3482 6.49467 66.5544 6.30078C66.7637 6.10381 67.0145 6.00533 67.3069 6.00533C67.5993 6.00533 67.8486 6.10381 68.0548 6.30078C68.2641 6.49467 68.3687 6.72704 68.3687 6.99787C68.3687 7.27178 68.2641 7.50722 68.0548 7.70419C67.8486 7.89808 67.5993 7.99503 67.3069 7.99503ZM69.824 16V14.8274L73.2956 10.5295V10.4787H69.9441V8.90909H75.6639V10.1879L72.4047 14.3796V14.4304H75.7839V16H69.824ZM77.3247 16V6.54545H79.3236V14.3519H83.3769V16H77.3247ZM87.8675 16.1385C87.1504 16.1385 86.5303 15.9862 86.0071 15.6815C85.487 15.3737 85.0853 14.9459 84.8022 14.3981C84.5191 13.8472 84.3775 13.2086 84.3775 12.4822C84.3775 11.7498 84.5191 11.1096 84.8022 10.5618C85.0853 10.0109 85.487 9.5831 86.0071 9.27841C86.5303 8.97064 87.1504 8.81676 87.8675 8.81676C88.5846 8.81676 89.2032 8.97064 89.7234 9.27841C90.2466 9.5831 90.6497 10.0109 90.9329 10.5618C91.216 11.1096 91.3576 11.7498 91.3576 12.4822C91.3576 13.2086 91.216 13.8472 90.9329 14.3981C90.6497 14.9459 90.2466 15.3737 89.7234 15.6815C89.2032 15.9862 88.5846 16.1385 87.8675 16.1385ZM87.8768 14.6151C88.203 14.6151 88.4754 14.5227 88.6939 14.3381C88.9124 14.1503 89.0771 13.8949 89.1879 13.5717C89.3017 13.2486 89.3587 12.8808 89.3587 12.4684C89.3587 12.056 89.3017 11.6882 89.1879 11.3651C89.0771 11.0419 88.9124 10.7865 88.6939 10.5987C88.4754 10.411 88.203 10.3171 87.8768 10.3171C87.5475 10.3171 87.2705 10.411 87.0458 10.5987C86.8242 10.7865 86.6565 11.0419 86.5426 11.3651C86.4318 11.6882 86.3764 12.056 86.3764 12.4684C86.3764 12.8808 86.4318 13.2486 86.5426 13.5717C86.6565 13.8949 86.8242 14.1503 87.0458 14.3381C87.2705 14.5227 87.5475 14.6151 87.8768 14.6151ZM95.8402 16.1385C95.1139 16.1385 94.4891 15.9846 93.9659 15.6768C93.4458 15.366 93.0457 14.9351 92.7656 14.3842C92.4886 13.8333 92.3501 13.1993 92.3501 12.4822C92.3501 11.7559 92.4902 11.1188 92.7702 10.571C93.0534 10.0201 93.455 9.59079 93.9751 9.28303C94.4953 8.97218 95.1139 8.81676 95.831 8.81676C96.4496 8.81676 96.9912 8.9291 97.456 9.15376C97.9207 9.37843 98.2885 9.69389 98.5593 10.1001C98.8301 10.5064 98.9794 10.9834 99.0071 11.5312H97.1513C97.099 11.1773 96.9605 10.8926 96.7358 10.6772C96.5142 10.4587 96.2234 10.3494 95.8633 10.3494C95.5586 10.3494 95.2924 10.4325 95.0646 10.5987C94.84 10.7618 94.6645 11.0004 94.5384 11.3143C94.4122 11.6282 94.3491 12.0083 94.3491 12.4545C94.3491 12.907 94.4106 13.2917 94.5337 13.6087C94.6599 13.9257 94.8369 14.1673 95.0646 14.3335C95.2924 14.4996 95.5586 14.5827 95.8633 14.5827C96.0879 14.5827 96.2895 14.5366 96.468 14.4442C96.6496 14.3519 96.7989 14.218 96.9158 14.0426C97.0359 13.8641 97.1143 13.6502 97.1513 13.4009H99.0071C98.9763 13.9426 98.8286 14.4196 98.5639 14.832C98.3023 15.2414 97.9407 15.5614 97.479 15.7923C97.0174 16.0231 96.4711 16.1385 95.8402 16.1385ZM102.048 13.9595L102.053 11.6005H102.339L104.61 8.90909H106.868L103.816 12.473H103.35L102.048 13.9595ZM100.266 16V6.54545H102.233V16H100.266ZM104.698 16L102.611 12.9116L103.922 11.522L107.002 16H104.698ZM108.982 16.12C108.677 16.12 108.416 16.0123 108.197 15.7969C107.982 15.5784 107.874 15.3168 107.874 15.0121C107.874 14.7105 107.982 14.4519 108.197 14.2365C108.416 14.0211 108.677 13.9134 108.982 13.9134C109.278 13.9134 109.536 14.0211 109.758 14.2365C109.979 14.4519 110.09 14.7105 110.09 15.0121C110.09 15.2152 110.038 15.4014 109.933 15.5707C109.832 15.7369 109.698 15.8707 109.532 15.9723C109.365 16.0708 109.182 16.12 108.982 16.12ZM114.909 16.1385C114.182 16.1385 113.557 15.9846 113.034 15.6768C112.514 15.366 112.114 14.9351 111.834 14.3842C111.557 13.8333 111.419 13.1993 111.419 12.4822C111.419 11.7559 111.559 11.1188 111.839 10.571C112.122 10.0201 112.523 9.59079 113.044 9.28303C113.564 8.97218 114.182 8.81676 114.899 8.81676C115.518 8.81676 116.06 8.9291 116.524 9.15376C116.989 9.37843 117.357 9.69389 117.628 10.1001C117.898 10.5064 118.048 10.9834 118.075 11.5312H116.22C116.167 11.1773 116.029 10.8926 115.804 10.6772C115.583 10.4587 115.292 10.3494 114.932 10.3494C114.627 10.3494 114.361 10.4325 114.133 10.5987C113.908 10.7618 113.733 11.0004 113.607 11.3143C113.481 11.6282 113.417 12.0083 113.417 12.4545C113.417 12.907 113.479 13.2917 113.602 13.6087C113.728 13.9257 113.905 14.1673 114.133 14.3335C114.361 14.4996 114.627 14.5827 114.932 14.5827C115.156 14.5827 115.358 14.5366 115.536 14.4442C115.718 14.3519 115.867 14.218 115.984 14.0426C116.104 13.8641 116.183 13.6502 116.22 13.4009H118.075C118.045 13.9426 117.897 14.4196 117.632 14.832C117.371 15.2414 117.009 15.5614 116.547 15.7923C116.086 16.0231 115.539 16.1385 114.909 16.1385ZM122.538 16.1385C121.821 16.1385 121.201 15.9862 120.678 15.6815C120.158 15.3737 119.756 14.9459 119.473 14.3981C119.19 13.8472 119.048 13.2086 119.048 12.4822C119.048 11.7498 119.19 11.1096 119.473 10.5618C119.756 10.0109 120.158 9.5831 120.678 9.27841C121.201 8.97064 121.821 8.81676 122.538 8.81676C123.256 8.81676 123.874 8.97064 124.394 9.27841C124.917 9.5831 125.321 10.0109 125.604 10.5618C125.887 11.1096 126.028 11.7498 126.028 12.4822C126.028 13.2086 125.887 13.8472 125.604 14.3981C125.321 14.9459 124.917 15.3737 124.394 15.6815C123.874 15.9862 123.256 16.1385 122.538 16.1385ZM122.548 14.6151C122.874 14.6151 123.146 14.5227 123.365 14.3381C123.583 14.1503 123.748 13.8949 123.859 13.5717C123.973 13.2486 124.03 12.8808 124.03 12.4684C124.03 12.056 123.973 11.6882 123.859 11.3651C123.748 11.0419 123.583 10.7865 123.365 10.5987C123.146 10.411 122.874 10.3171 122.548 10.3171C122.218 10.3171 121.941 10.411 121.717 10.5987C121.495 10.7865 121.327 11.0419 121.214 11.3651C121.103 11.6882 121.047 12.056 121.047 12.4684C121.047 12.8808 121.103 13.2486 121.214 13.5717C121.327 13.8949 121.495 14.1503 121.717 14.3381C121.941 14.5227 122.218 14.6151 122.548 14.6151ZM127.307 16V8.90909H129.182V10.1602H129.265C129.412 9.74467 129.659 9.4169 130.003 9.17685C130.348 8.93679 130.76 8.81676 131.241 8.81676C131.727 8.81676 132.141 8.93833 132.482 9.18146C132.824 9.42152 133.052 9.74775 133.166 10.1602H133.239C133.384 9.75391 133.646 9.42921 134.024 9.18608C134.406 8.93987 134.857 8.81676 135.377 8.81676C136.039 8.81676 136.576 9.02758 136.988 9.44922C137.403 9.86778 137.611 10.4618 137.611 11.2312V16H135.649V11.619C135.649 11.225 135.545 10.9296 135.335 10.7326C135.126 10.5356 134.864 10.4371 134.551 10.4371C134.194 10.4371 133.915 10.551 133.715 10.7788C133.515 11.0034 133.415 11.3004 133.415 11.6697V16H131.508V11.5774C131.508 11.2296 131.408 10.9527 131.208 10.7464C131.011 10.5402 130.751 10.4371 130.428 10.4371C130.209 10.4371 130.013 10.4925 129.837 10.6033C129.665 10.7111 129.528 10.8634 129.426 11.0604C129.325 11.2543 129.274 11.482 129.274 11.7436V16H127.307Z" fill="#FF8800"/>
</svg>
