<svg width="28" height="30" viewBox="0 0 28 30" fill="none" xmlns="http://www.w3.org/2000/svg">
<path d="M9.88236 0.433334V3.91667C6.04471 5.3 3.29412 8.98333 3.29412 13.3333C3.29412 16.2833 4.57883 18.9 6.58824 20.7333V16.6667H9.88236V26.6667H5.78163e-06V23.3333H4.49648C3.08313 22.0894 1.95028 20.5529 1.17453 18.8277C0.398784 17.1025 -0.00175522 15.2288 5.78163e-06 13.3333C5.78163e-06 7.11667 4.2 1.91667 9.88236 0.433334ZM26.3529 0H16.4706V10H19.7647V5.93333C21.7741 7.76667 23.0588 10.3833 23.0588 13.3333H26.3529C26.3529 9.33333 24.6071 5.76667 21.8565 3.33333H26.3529V0ZM26.3529 21.6667V20C26.3529 18.1667 24.8706 16.6667 23.0588 16.6667C21.2471 16.6667 19.7647 18.1667 19.7647 20V21.6667C18.8588 21.6667 18.1176 22.4167 18.1176 23.3333V28.3333C18.1176 29.25 18.8588 30 19.7647 30H26.3529C27.2588 30 28 29.25 28 28.3333V23.3333C28 22.4167 27.2588 21.6667 26.3529 21.6667ZM24.7059 21.6667H21.4118V20C21.4118 19.0833 22.1529 18.3333 23.0588 18.3333C23.9647 18.3333 24.7059 19.0833 24.7059 20V21.6667Z" fill="#FF8800"/>
</svg>
