<svg width="34" height="34" viewBox="0 0 34 34" fill="none" xmlns="http://www.w3.org/2000/svg">
<path d="M27.8182 18.548C27.8182 21.762 26.5818 24.6824 24.5727 26.8766V24.7288H20.0909V18.548H9.27273V15.4575H13.9091V10.8219H20.0909V3.8067C18.6227 3.34314 17.0773 3.09591 15.4545 3.09591C6.92364 3.09591 0 10.0184 0 18.548C0 27.0775 6.92364 34 15.4545 34C23.9855 34 30.9091 27.0775 30.9091 18.548C30.9091 18.0226 30.8782 17.5127 30.8318 17.0027H27.6945C27.7564 17.5127 27.8182 18.0226 27.8182 18.548ZM13.9091 30.8014C7.80454 30.0443 3.09091 24.8524 3.09091 18.548C3.09091 17.5899 3.21455 16.6783 3.41545 15.782L10.8182 23.1836V27.8192H13.9091V30.8014ZM32.4545 4.64111V4.08484C32.4545 2.06062 31.0018 0.221825 28.9927 0.0209487C28.4539 -0.0353833 27.9093 0.0222032 27.3942 0.18997C26.8791 0.357737 26.4051 0.631934 26.0028 0.994761C25.6006 1.35759 25.2792 1.80093 25.0594 2.29602C24.8397 2.7911 24.7265 3.32686 24.7273 3.86851V4.64111H23.1818V13.9123H34V4.64111H32.4545ZM30.9091 4.64111H26.2727V3.86851C26.2727 2.58599 27.3082 1.5507 28.5909 1.5507C29.8736 1.5507 30.9091 2.58599 30.9091 3.86851V4.64111Z" fill="#FF8800"/>
</svg>