<svg width="32" height="28" viewBox="0 0 32 28" fill="none" xmlns="http://www.w3.org/2000/svg">
<path d="M27.3091 28L16.2182 17.2308C15.4424 18.5019 14.4058 19.5258 13.1084 20.3026C11.8109 21.0794 10.3505 21.4678 8.72727 21.4678C6.30303 21.4678 4.24242 20.644 2.54545 18.9962C0.848485 17.3485 0 15.3476 0 12.9937C0 11.4401 0.387879 10.016 1.16364 8.72131C1.93939 7.42665 2.98182 6.40269 4.29091 5.64943L0.545455 2.01261L2.61818 0L29.3818 25.9874L27.3091 28ZM8.72727 15.8184C9.52727 15.8184 10.2124 15.5416 10.7825 14.9879C11.3527 14.4343 11.6373 13.7695 11.6364 12.9937V12.7465L8.98182 10.169H8.72727C7.92727 10.169 7.24218 10.4458 6.672 10.9994C6.10182 11.5531 5.81721 12.2178 5.81818 12.9937C5.81818 13.7705 6.10327 14.4357 6.67345 14.9894C7.24364 15.543 7.92824 15.8194 8.72727 15.8184ZM28.8364 21.4678L17.2 10.169H32V15.8184H29.0909V21.4678H28.8364Z" fill="#FF8800"/>
</svg>
