<svg width="30" height="34" viewBox="0 0 30 34" fill="none" xmlns="http://www.w3.org/2000/svg">
<path d="M15.7895 0C12.3947 0 9 1.11714 6.1579 3.36762L8.4 5.66667C13.3421 2.00762 20.2737 2.42857 24.7263 7.01048L26.9526 4.72762C23.8737 1.55429 19.8316 0 15.7895 0ZM2.02105 3.2381L0 5.29429L9.04737 14.5714H6.31579C5.47826 14.5714 4.67504 14.9126 4.08282 15.5198C3.4906 16.1271 3.15789 16.9507 3.15789 17.8095V30.7619C3.15789 32.559 4.56316 34 6.31579 34H25.2632C26.0526 34 26.7158 33.7086 27.2684 33.2552L27.9947 34L30 31.9276M15.7895 6.47619C14.0053 6.47619 12.2368 6.9781 10.6895 7.9981L13.0105 10.3781C15.3632 9.19619 18.2842 9.58476 20.2579 11.5924L22.4842 9.30952C21.6059 8.40754 20.5621 7.69279 19.4131 7.2065C18.2641 6.72021 17.0325 6.472 15.7895 6.47619ZM17.0842 14.5714L21.8211 19.4286H25.2632V22.9581L28.4211 26.1962V17.8095C28.4211 16.9507 28.0883 16.1271 27.4961 15.5198C26.9039 14.9126 26.1007 14.5714 25.2632 14.5714M6.31579 19.4286H13.7842L18.5211 24.2857H6.31579V19.4286Z" fill="#FF8800"/>
</svg>
