<svg width="32" height="30" viewBox="0 0 32 30" fill="none" xmlns="http://www.w3.org/2000/svg">
<path fill-rule="evenodd" clip-rule="evenodd" d="M3.64292 4.51L0.542925 1.41L1.95292 0L27.9529 26L26.5429 27.41L19.3029 20.18C17.8496 19.5982 16.282 19.3588 14.7213 19.4802C13.1606 19.6016 11.6488 20.0805 10.3029 20.88C9.96921 21.0869 9.56836 21.1567 9.18435 21.0747C8.80034 20.9927 8.46297 20.7652 8.24292 20.44L8.14293 20.28C8.03415 20.1131 7.9597 19.9262 7.92394 19.7302C7.88818 19.5342 7.89182 19.3331 7.93464 19.1385C7.97746 18.944 8.05861 18.7599 8.17335 18.597C8.28809 18.4342 8.43413 18.2958 8.60293 18.19C10.6529 16.9509 12.9977 16.2844 15.3929 16.26L11.7929 12.66C9.84293 13.0798 7.9793 13.8307 6.28292 14.88C5.95412 15.0742 5.56328 15.1348 5.19111 15.0492C4.81893 14.9636 4.49383 14.7384 4.28292 14.42L4.17292 14.25C4.0639 14.0823 3.98928 13.8946 3.95339 13.6979C3.9175 13.5011 3.92106 13.2992 3.96385 13.1038C4.00665 12.9084 4.08783 12.7235 4.20269 12.5598C4.31755 12.396 4.46379 12.2568 4.63293 12.15C6.05282 11.2726 7.57394 10.5708 9.16292 10.06L6.02292 6.92C4.74864 7.44966 3.52101 8.08522 2.35292 8.82C2.02412 9.01424 1.63328 9.07481 1.26111 8.98921C0.888932 8.90361 0.563832 8.67837 0.352925 8.36L0.242925 8.19C0.133209 8.02074 0.0585155 7.83122 0.0232535 7.63263C-0.0120085 7.43403 -0.0071243 7.23038 0.037618 7.0337C0.0823602 6.83702 0.166054 6.6513 0.283757 6.4875C0.40146 6.3237 0.550788 6.18514 0.722925 6.08C1.66353 5.49795 2.63866 4.97365 3.64292 4.51ZM30.3027 6.04043C26.9699 3.96182 23.2358 2.61034 19.3447 2.07441C15.4536 1.53848 11.4932 1.83018 7.72266 2.93043L10.3527 5.56043C16.636 4.21152 23.1978 5.36673 28.6427 8.78043C28.9715 8.97467 29.3623 9.03524 29.7345 8.94964C30.1066 8.86404 30.4317 8.63881 30.6427 8.32043L30.7527 8.15043C30.8637 7.98299 30.9402 7.79506 30.9777 7.59767C31.0152 7.40027 31.013 7.19738 30.9711 7.00087C30.9292 6.80436 30.8484 6.6182 30.7337 6.45328C30.6189 6.28836 30.4724 6.148 30.3027 6.04043ZM26.8326 14.2003L26.7226 14.3703C26.5113 14.694 26.1825 14.923 25.8056 15.0088C25.4287 15.0946 25.0332 15.0306 24.7026 14.8303C22.3994 13.4112 19.7973 12.5484 17.1026 12.3103L13.8926 9.10028C14.4326 9.03028 14.9826 9.03028 15.5426 9.03028C19.3644 9.02858 23.1111 10.0917 26.3626 12.1003C26.5325 12.2062 26.6797 12.3449 26.7955 12.5083C26.9114 12.6717 26.9935 12.8564 27.0373 13.0519C27.081 13.2473 27.0854 13.4495 27.0503 13.6466C27.0152 13.8438 26.9411 14.032 26.8326 14.2003ZM18.543 26.2002C18.543 27.857 17.1998 29.2002 15.543 29.2002C13.8861 29.2002 12.543 27.857 12.543 26.2002C12.543 24.5433 13.8861 23.2002 15.543 23.2002C17.1998 23.2002 18.543 24.5433 18.543 26.2002Z" fill="#FF8800"/>
</svg>
