<svg width="26" height="30" viewBox="0 0 26 30" fill="none" xmlns="http://www.w3.org/2000/svg">
<path d="M14.0541 20C14.0541 21.5857 12.8032 22.8571 11.2432 22.8571C10.4978 22.8571 9.78283 22.5561 9.2557 22.0203C8.72857 21.4845 8.43243 20.7578 8.43243 20C8.43243 18.4143 9.68324 17.1429 11.2432 17.1429C11.9887 17.1429 12.7037 17.4439 13.2308 17.9797C13.7579 18.5155 14.0541 19.2422 14.0541 20ZM12.7751 27.1429C12.9438 28.1714 13.2951 29.1286 13.787 30H2.81081C2.06534 30 1.3504 29.699 0.823267 29.1632C0.296138 28.6273 0 27.9006 0 27.1429V12.8571C0 11.2714 1.25081 10 2.81081 10H4.21622V7.14286C4.21622 3.2 7.36432 0 11.2432 0C15.1222 0 18.2703 3.2 18.2703 7.14286V10H19.6757C20.4211 10 21.1361 10.301 21.6632 10.8368C22.1903 11.3727 22.4865 12.0994 22.4865 12.8571V17.2714C22.0227 17.2 21.5589 17.1429 21.0811 17.1429C20.6032 17.1429 20.1395 17.2 19.6757 17.2714V12.8571H2.81081V27.1429H12.7751ZM7.02703 10H15.4595V7.14286C15.4595 4.77143 13.5762 2.85714 11.2432 2.85714C8.91027 2.85714 7.02703 4.77143 7.02703 7.14286V10ZM24.3697 21.2L19.3243 26.3286L17.0897 24.0571L15.4595 25.7143L19.3243 30L26 23.2143L24.3697 21.2Z" fill="#FF8800"/>
</svg>
